# xmcd
#
# Track frame offsets:
#	150
#	21990
#	35632
#	55770
#	74752
#	97515
#	114017
#	133687
#	152895
#	173160
#	191120
#	211447
#	230797
#	248920
#	263490
#
# Disc length: 3788 seconds
#
# Revision: 9
# Processed by: cddbd v1.4PL0 Copyright (c) Steve Scherf et al.
# Submitted via: EasyCDDAExtractor 5.0.2.1
#
DISCID=d10eca0f
DTITLE=Sting and The Police - The Very Best Of Sting and The Police
DYEAR=1997
DGENRE=Rock
TTITLE0=Message In A Bottle
TTITLE1=Can't Stand Losing You
TTITLE2=Englishman In New York
TTITLE3=Every Breath You Take
TTITLE4=Walking On The Moon
TTITLE5=Fields Of Gold
TTITLE6=Every Little Thing She Does Is Magic
TTITLE7=If You Love Somebody Let Them Free
TTITLE8=Let Your Soul Be Your Pilot - Edit
TTITLE9=Russians
TTITLE10=If I Ever Lose My Faith In You
TTITLE11=When We Dance - Edit
TTITLE12=Don't Stand So Close To Me
TTITLE13=Roxanne
TTITLE14=Roxanne '97 - Puff Daddy Remix
EXTD=YEAR: 666 ID3G: 35
EXTT0=
EXTT1=
EXTT2=
EXTT3=
EXTT4=
EXTT5=
EXTT6=
EXTT7=
EXTT8=
EXTT9=
EXTT10=
EXTT11=
EXTT12=
EXTT13=
EXTT14=
PLAYORDER=
